<?xml version="1.0" standalone="no"?><!DOCTYPE svg PUBLIC "-//W3C//DTD SVG 1.1//EN" "http://www.w3.org/Graphics/SVG/1.1/DTD/svg11.dtd"><svg t="1756990936916" class="icon" viewBox="0 0 1024 1024" version="1.1" xmlns="http://www.w3.org/2000/svg" p-id="12419" xmlns:xlink="http://www.w3.org/1999/xlink" width="200" height="200"><path d="M474.5216 858.5216a397.2608 397.2608 0 1 1 397.2096-397.312 397.7216 397.7216 0 0 1-397.2096 397.312z m0-727.04a329.984 329.984 0 1 0 329.984 329.984 330.2912 330.2912 0 0 0-329.984-330.24z" fill="#2c2c2c" p-id="12420"></path><path d="M939.7248 960H110.8992a33.5872 33.5872 0 1 1 0-67.1744h747.52L707.9424 742.4a33.5872 33.5872 0 1 1 47.4624-47.5136l208.0256 208.0256a33.536 33.536 0 0 1-23.7056 57.2928zM632.064 384l-30.0544 30.0032-71.168-71.168 30.0544-30.0032a14.1312 14.1312 0 0 1 20.48 0l50.688 50.688a14.1824 14.1824 0 0 1 0 20.48zM332.288 612.352l86.272-15.36-71.3216-71.1168z m24.9344-96.1536l71.168 71.168L591.104 424.96l-71.168-71.168z" fill="#2c2c2c" p-id="12421"></path></svg>