<?xml version="1.0" standalone="no"?><!DOCTYPE svg PUBLIC "-//W3C//DTD SVG 1.1//EN" "http://www.w3.org/Graphics/SVG/1.1/DTD/svg11.dtd"><svg t="1756984255266" class="icon" viewBox="0 0 1288 1024" version="1.1" xmlns="http://www.w3.org/2000/svg" p-id="9222" xmlns:xlink="http://www.w3.org/1999/xlink" width="251.5625" height="200"><path d="M42.964386 597.535014h257.670508a42.70382 42.70382 0 1 0 0-85.407641h-257.670508a42.70382 42.70382 0 1 0 0 85.407641z m1233.344231 356.598612L1128.350737 807.160105c45.801657-58.033768 74.319123-130.167034 74.319123-209.711947 0-188.548223-153.864036-341.413424-343.642708-341.413423s-343.642708 152.8652-343.642708 341.413423 153.864036 341.413424 343.642708 341.413424c80.066044 0 152.662538-28.32928 211.087155-73.826944l147.943404 146.987997a41.400992 41.400992 0 0 0 58.250906 0 40.793005 40.793005 0 0 0 0-57.903485zM1043.218138 776.268596c-0.767221 0.680366-1.809484 0.926456-2.48985 1.708153s-1.027787 1.780532-1.722629 2.460898a257.554701 257.554701 0 0 1-179.978507 73.132101c-142.355718 0-257.670508-114.634424-257.670508-256.063686s115.38717-256.063687 257.742887-256.063687 257.670508 114.634424 257.670509 256.063687c0.101331 69.730272-28.097666 132.642408-73.537426 178.820437z m-1000.282704-690.860956H816.149621a42.70382 42.70382 0 1 0 0-85.40764H42.964386a42.70382 42.70382 0 1 0 0 85.40764z m343.657184 170.71395H42.964386a42.70382 42.70382 0 1 0 0 85.40764h343.628232a42.70382 42.70382 0 1 0 0-85.40764z m0 512.112897H42.964386a42.70382 42.70382 0 1 0 0 85.407641h343.628232a42.70382 42.70382 0 1 0 0-85.407641z m0 0" fill="#313131" p-id="9223"></path></svg>