<?xml version="1.0" standalone="no"?><!DOCTYPE svg PUBLIC "-//W3C//DTD SVG 1.1//EN" "http://www.w3.org/Graphics/SVG/1.1/DTD/svg11.dtd"><svg t="1757061392403" class="icon" viewBox="0 0 1024 1024" version="1.1" xmlns="http://www.w3.org/2000/svg" p-id="32470" xmlns:xlink="http://www.w3.org/1999/xlink" width="200" height="200"><path d="M720.554667 254.065778q-17.009778-5.688889-27.648-20.081778l-43.804445-59.050667Q598.016 105.813333 512 105.813333q-85.959111 0-137.102222 69.12l-43.804445 59.050667q-10.638222 14.392889-27.648 20.081778l-69.688889 23.324444q-81.464889 27.306667-108.088888 109.112889-26.510222 81.749333 23.324444 151.779556l42.666667 59.847111q10.410667 14.563556 10.581333 32.426666l0.682667 73.557334q0.796444 85.959111 70.314666 136.533333 69.575111 50.517333 151.552 24.689778l70.144-22.072889q17.066667-5.404444 34.133334 0l70.144 22.072889q81.976889 25.827556 151.552-24.746667 69.518222-50.517333 70.314666-136.533333l0.682667-73.443556q0.170667-17.92 10.581333-32.483555l42.666667-59.847111q49.834667-70.030222 23.324444-151.779556-26.624-81.806222-108.088888-109.112889l-69.688889-23.324444z m-162.816-11.434667l43.747555 59.050667q31.971556 43.178667 82.887111 60.245333l69.688889 23.324445q27.192889 9.102222 36.010667 36.408888 8.874667 27.249778-7.736889 50.574223l-42.666667 59.847111q-31.175111 43.804444-31.687111 97.507555l-0.682666 73.443556q-0.227556 28.672-23.438223 45.511111-23.153778 16.839111-50.517333 8.248889l-70.087111-22.072889q-51.256889-16.099556-102.513778 0l-70.087111 22.072889q-27.306667 8.590222-50.517333-8.248889-23.210667-16.839111-23.438223-45.511111l-0.682666-73.443556q-0.512-53.76-31.687111-97.507555l-42.666667-59.847111q-16.611556-23.324444-7.736889-50.631111 8.817778-27.192889 36.010667-36.295112l69.688889-23.381333q50.915556-17.066667 82.887111-60.245333l43.804444-59.050667q17.066667-23.04 45.681778-23.04 28.672 0 45.738667 23.04z" fill="#3A3A3A" p-id="32471"></path></svg>











