<?xml version="1.0" standalone="no"?><!DOCTYPE svg PUBLIC "-//W3C//DTD SVG 1.1//EN" "http://www.w3.org/Graphics/SVG/1.1/DTD/svg11.dtd"><svg t="1757056725952" class="icon" viewBox="0 0 1024 1024" version="1.1" xmlns="http://www.w3.org/2000/svg" p-id="30575" xmlns:xlink="http://www.w3.org/1999/xlink" width="200" height="200"><path d="M298.666667 128C183.893333 128 85.333333 215.125333 85.333333 329.130667v237.738666C85.333333 680.874667 183.893333 768 298.666667 768a42.666667 42.666667 0 1 0 0-85.333333c-73.728 0-128-54.784-128-115.797334V329.130667C170.666667 268.117333 224.938667 213.333333 298.666667 213.333333h426.666666c73.728 0 128 54.784 128 115.797334v237.738666C853.333333 627.882667 799.061333 682.666667 725.333333 682.666667a42.666667 42.666667 0 0 0-42.666666 42.666666v96.213334l-142.122667-127.914667A42.666667 42.666667 0 0 0 512 682.666667h-42.666667a42.666667 42.666667 0 1 0 0 85.333333h26.282667l129.962667 116.949333C680.533333 934.4 768 895.402667 768 821.546667v-57.6c95.488-18.432 170.666667-97.536 170.666667-197.12v-237.653334C938.666667 215.082667 840.106667 128 725.333333 128H298.666667zM256 341.333333a42.666667 42.666667 0 0 1 42.666667-42.666666h426.666666a42.666667 42.666667 0 1 1 0 85.333333H298.666667a42.666667 42.666667 0 0 1-42.666667-42.666667z m42.666667 128a42.666667 42.666667 0 1 0 0 85.333334h256a42.666667 42.666667 0 1 0 0-85.333334H298.666667z" fill="#14101C" p-id="30576"></path></svg>











