<?xml version="1.0" standalone="no"?><!DOCTYPE svg PUBLIC "-//W3C//DTD SVG 1.1//EN" "http://www.w3.org/Graphics/SVG/1.1/DTD/svg11.dtd"><svg t="1757056695617" class="icon" viewBox="0 0 1024 1024" version="1.1" xmlns="http://www.w3.org/2000/svg" p-id="27667" xmlns:xlink="http://www.w3.org/1999/xlink" width="200" height="200"><path d="M932.5568 54.9888a34.7136 34.7136 0 0 0-13.2608 2.6112L260.608 322.304H73.216a18.6368 18.6368 0 0 0-18.3296 18.944v341.76c0 10.496 8.2432 18.944 18.2784 18.944h116.224a137.1136 137.1136 0 0 0-6.5024 41.6256c0 75.264 61.4912 136.5504 137.1648 136.5504 63.2832 0 116.6848-43.008 132.4544-101.0176l466.944 187.648a36.9664 36.9664 0 0 0 13.312 2.6112 37.376 37.376 0 0 0 36.5568-37.888V92.8768a37.4784 37.4784 0 0 0-36.7104-37.888zM320 798.208a54.784 54.784 0 0 1-54.8864-54.6304c0-12.8 4.4544-25.088 12.5952-34.7648l97.024 38.9632c-2.304 28.16-25.9584 50.432-54.784 50.432z m566.8352 66.7136L291.1744 625.664l-14.7456-5.9392H137.216v-215.04h139.264l14.7456-5.9904 595.6608-239.3088v705.5872z" fill="#000000" fill-opacity=".85" p-id="27668"></path></svg>

























