<?xml version="1.0" standalone="no"?><!DOCTYPE svg PUBLIC "-//W3C//DTD SVG 1.1//EN" "http://www.w3.org/Graphics/SVG/1.1/DTD/svg11.dtd"><svg t="1757101351539" class="icon" viewBox="0 0 1024 1024" version="1.1" xmlns="http://www.w3.org/2000/svg" p-id="16487" xmlns:xlink="http://www.w3.org/1999/xlink" width="200" height="200"><path d="M669.482667 85.333333c20.053333 0 38.826667 9.386667 53.205333 28.501334l4.053333 6.869333L773.034667 213.333333H960c29.141333 0 54.186667 19.584 62.122667 50.090667l1.365333 6.272L1024 277.333333v597.333334c0 31.061333-22.272 57.472-56.32 63.488L960 938.666667h-896c-31.061333 0-57.472-22.272-63.488-56.32L0 874.666667v-597.333334c0-31.061333 22.272-57.472 56.32-63.488L64 213.333333h186.88l46.378667-92.586666c7.978667-15.957333 22.186667-27.733333 41.728-33.109334l7.594666-1.706666L354.517333 85.333333zM367.786667 170.453333L315.434667 275.072A42.666667 42.666667 0 0 1 277.333333 298.666667L85.333333 298.496 85.162667 853.333333 938.666667 853.461333 938.794667 298.666667H746.666667a42.666667 42.666667 0 0 1-35.498667-18.986667l-2.645333-4.608L656.469333 170.666667 367.786667 170.453333zM512 298.666667a256 256 0 1 1 0 512 256 256 0 0 1 0-512z m0 85.333333a170.666667 170.666667 0 1 0 0 341.333333 170.666667 170.666667 0 0 0 0-341.333333z m320-42.666667a64 64 0 1 1 0 128 64 64 0 0 1 0-128z" fill="#191919" p-id="16488"></path></svg>























