<?xml version="1.0" standalone="no"?><!DOCTYPE svg PUBLIC "-//W3C//DTD SVG 1.1//EN" "http://www.w3.org/Graphics/SVG/1.1/DTD/svg11.dtd"><svg t="1757101395907" class="icon" viewBox="0 0 1879 1024" version="1.1" xmlns="http://www.w3.org/2000/svg" p-id="17537" xmlns:xlink="http://www.w3.org/1999/xlink" width="366.9921875" height="200"><path d="M939.209249 985.526012c260.439306 0 471.454335-211.163006 471.454335-471.454336S1199.500578 42.469364 939.209249 42.469364c-260.439306 0-471.602312 211.163006-471.602313 471.454335S678.621965 985.526012 939.209249 985.526012z m0-854.714451c211.606936 0 383.112139 171.505202 383.112138 383.112138s-171.505202 383.260116-383.112138 383.260116-383.112139-171.653179-383.112139-383.260116S727.602312 130.811561 939.209249 130.811561zM703.334104 384.295954c0-32.554913 26.339884-58.894798 58.894798-58.894798 32.554913 0 58.894798 26.339884 58.894797 58.894798 0 32.554913-26.339884 58.894798-58.894797 58.894797-32.406936 0-58.894798-26.339884-58.894798-58.894797z m353.66474 0c0-32.554913 26.339884-58.894798 58.894798-58.894798 32.554913 0 58.894798 26.339884 58.894797 58.894798 0 32.554913-26.339884 58.894798-58.894797 58.894797-32.406936 0-58.894798-26.339884-58.894798-58.894797z m6.215029 227.588439H815.944509c-17.313295 0-31.519075-14.20578-31.519075-31.519075v-3.847399c0-17.313295 14.20578-31.519075 31.519075-31.519075h247.269364c17.313295 0 31.519075 14.20578 31.519075 31.519075v3.847399c0 17.461272-14.20578 31.519075-31.519075 31.519075z" fill="#2c2c2c" p-id="17538"></path></svg>























