<?xml version="1.0" standalone="no"?><!DOCTYPE svg PUBLIC "-//W3C//DTD SVG 1.1//EN" "http://www.w3.org/Graphics/SVG/1.1/DTD/svg11.dtd"><svg t="1757101542680" class="icon" viewBox="0 0 1024 1024" version="1.1" xmlns="http://www.w3.org/2000/svg" p-id="35653" xmlns:xlink="http://www.w3.org/1999/xlink" width="200" height="200"><path d="M224.519 847.426c12.253-6.018 27.060-0.982 33.152 11.252 6.029 12.231 0.984 27.014-11.268 33.034l-130.582 64.168c-6.027 2.879-13.89 5.232-21.36 5.429h-0.721c-7.076 0.066-14.153-1.635-20.377-5.886-7.274-4.972-12.449-12.428-14.087-23.026-0.983-6.998-0.13-15.635 3.538-26.295h-0.066l46.059-137.17c-23.522-36.236-42.326-75.945-55.432-118.2-13.89-44.807-21.359-92.233-21.359-141.224 0-131.872 53.529-251.249 140.082-337.658 86.555-86.408 206.13-139.85 338.219-139.85 132.023 0 251.6 53.441 338.153 139.852 86.554 86.408 140.083 205.785 140.083 337.658 0 131.805-53.529 251.181-140.083 337.591-86.553 86.407-206.129 139.849-338.153 139.849-28.895 0-57.46-2.682-85.636-7.719-28.633-5.168-56.281-12.818-82.62-22.764-12.776-4.775-19.197-19.035-14.414-31.79 4.849-12.755 19.133-19.232 31.908-14.391 23.849 8.961 48.55 15.83 73.844 20.408 24.57 4.448 50.318 6.736 76.92 6.736 118.332 0 225.522-47.879 303.098-125.328s125.538-184.463 125.538-302.596c0-118.2-47.961-225.214-125.538-302.662-77.578-77.444-184.768-125.327-303.099-125.327-118.394 0-225.587 47.881-303.164 125.329-77.577 77.449-125.537 184.463-125.537 302.663 0 44.217 6.682 86.801 19.001 126.701 12.712 40.82 31.384 79.15 55.103 113.884 5.504 7.063 6.814 16.679 3.143 25.054l-42.064 125.198 107.716-52.918zM293.186 537.962c0-13.672 11.137-24.727 24.832-24.727 13.627 0 24.767 11.055 24.767 24.727 0 46.246 18.74 88.043 49.010 118.265h0.066c30.27 30.22 72.205 48.993 118.462 48.993 46.193 0 88.126-18.773 118.396-48.993l1.244-1.178c29.618-30.157 47.83-71.496 47.83-117.087 0-13.672 11.139-24.727 24.767-24.727 13.694 0 24.833 11.055 24.833 24.727 0 59.066-23.72 112.64-62.181 151.758-0.459 0.521-0.917 0.98-1.441 1.502-39.246 39.182-93.563 63.449-153.45 63.449-59.952 0-114.269-24.268-153.515-63.449v-0.128c-39.311-39.184-63.62-93.344-63.62-153.13v0zM670.649 426.173c0 13.671-11.139 24.726-24.832 24.726-13.694 0-24.766-11.055-24.766-24.726 0-24.596 9.958-46.836 26.075-62.927 16.185-16.091 38.461-26.099 63.098-26.099 24.57 0 46.847 10.007 62.967 26.099 16.181 16.091 26.142 38.332 26.142 62.927 0 13.671-11.075 24.726-24.769 24.726-13.692 0-24.832-11.055-24.832-24.726 0-10.925-4.389-20.801-11.596-27.932-7.144-7.131-17.037-11.578-27.913-11.578-10.942 0-20.835 4.448-27.977 11.578-7.208 7.131-11.599 17.007-11.599 27.932v0zM270.841 426.173c0 13.671-11.139 24.726-24.767 24.726-13.693 0-24.833-11.055-24.833-24.726 0-24.596 10.026-46.836 26.143-62.927 16.117-16.091 38.394-26.099 63.030-26.099 24.57 0 46.912 10.007 63.031 26.099s26.078 38.332 26.078 62.927c0 13.671-11.073 24.726-24.769 24.726-13.692 0-24.829-11.055-24.829-24.726 0-10.925-4.392-20.801-11.533-27.932-7.141-7.131-17.099-11.578-27.978-11.578-10.943 0-20.835 4.448-27.978 11.578-7.144 7.131-11.598 17.007-11.598 27.932v0z" fill="#2c2c2c" p-id="35654"></path></svg>










