<?xml version="1.0" standalone="no"?><!DOCTYPE svg PUBLIC "-//W3C//DTD SVG 1.1//EN" "http://www.w3.org/Graphics/SVG/1.1/DTD/svg11.dtd"><svg t="1757101437060" class="icon" viewBox="0 0 1024 1024" version="1.1" xmlns="http://www.w3.org/2000/svg" p-id="21722" xmlns:xlink="http://www.w3.org/1999/xlink" width="200" height="200"><path d="M544 288a10.666667 10.666667 0 0 0-10.666667-10.666667h-42.666666a10.666667 10.666667 0 0 0-10.666667 10.666667v192h-192a10.666667 10.666667 0 0 0-10.666667 10.666667v42.666666a10.666667 10.666667 0 0 0 10.666667 10.666667h192v192a10.666667 10.666667 0 0 0 10.666667 10.666667h42.666666a10.666667 10.666667 0 0 0 10.666667-10.666667v-192h192a10.666667 10.666667 0 0 0 10.666667-10.666667v-42.666666a10.666667 10.666667 0 0 0-10.666667-10.666667h-192v-192z" fill="#2c2c2c" p-id="21723"></path><path d="M544 288a10.666667 10.666667 0 0 0-10.666667-10.666667h-42.666666a10.666667 10.666667 0 0 0-10.666667 10.666667v192h-192a10.666667 10.666667 0 0 0-10.666667 10.666667v42.666666a10.666667 10.666667 0 0 0 10.666667 10.666667h192v192a10.666667 10.666667 0 0 0 10.666667 10.666667h42.666666a10.666667 10.666667 0 0 0 10.666667-10.666667v-192h192a10.666667 10.666667 0 0 0 10.666667-10.666667v-42.666666a10.666667 10.666667 0 0 0-10.666667-10.666667h-192v-192z" fill="#2c2c2c" p-id="21724"></path><path d="M149.333333 512c0-200.298667 162.368-362.666667 362.666667-362.666667s362.666667 162.368 362.666667 362.666667-162.368 362.666667-362.666667 362.666667S149.333333 712.298667 149.333333 512zM512 85.333333C276.352 85.333333 85.333333 276.352 85.333333 512s191.018667 426.666667 426.666667 426.666667 426.666667-191.018667 426.666667-426.666667S747.648 85.333333 512 85.333333z" fill="#2c2c2c" p-id="21725"></path></svg>










