<?xml version="1.0" standalone="no"?><!DOCTYPE svg PUBLIC "-//W3C//DTD SVG 1.1//EN" "http://www.w3.org/Graphics/SVG/1.1/DTD/svg11.dtd"><svg t="1757101294307" class="icon" viewBox="0 0 1024 1024" version="1.1" xmlns="http://www.w3.org/2000/svg" p-id="10569" xmlns:xlink="http://www.w3.org/1999/xlink" width="200" height="200"><path d="M603.164444 199.111111C678.4 199.111111 739.555556 261.12 739.555556 337.464889v3.043555l113.066666-49.294222a80.611556 80.611556 0 0 1 77.568 7.168A84.679111 84.679111 0 0 1 967.111111 368.64v286.634667c0 28.387556-13.824 54.556444-36.920889 70.257777a80.298667 80.298667 0 0 1-77.568 7.253334L739.555556 683.463111v31.630222c0 76.231111-61.155556 138.24-136.391112 138.24H193.28C118.044444 853.333333 56.888889 791.324444 56.888889 714.979556V337.464889C56.888889 261.12 118.044444 199.111111 193.28 199.111111h409.884444z m5.034667 85.333333H188.245333C162.929778 284.444444 142.222222 305.493333 142.222222 331.434667v389.575111C142.222222 746.837333 162.816 768 188.245333 768h419.953778c25.315556 0 46.023111-21.048889 46.023111-46.990222V331.434667c0-25.827556-20.593778-46.990222-46.023111-46.990223zM881.777778 369.777778l-142.222222 63.089778v158.264888L881.777778 654.222222V369.777778z" fill="#101938" p-id="10570"></path></svg>























